HIERARCHY
ROOT hips_dup
{
	OFFSET 13.555223 105.612480 -256.467346
	CHANNELS 6 Xposition Yposition Zposition Zrotation Yrotation Xrotation
	JOINT l_hip_dup
	{
		OFFSET 0.100000 0.000000 0.000000
		CHANNELS 3 Zrotation Yrotation Xrotation
		JOINT l_thigh_dup
		{
			OFFSET 7.071068 -7.071068 0.000000
			CHANNELS 3 Zrotation Yrotation Xrotation
			JOINT l_knee_dup
			{
				OFFSET -0.000004 -50.000008 -0.000000
				CHANNELS 3 Zrotation Yrotation Xrotation
				JOINT l_foot_dup
				{
					OFFSET 0.000000 -46.844975 0.000000
					CHANNELS 3 Zrotation Yrotation Xrotation
					JOINT l_toes_dup
					{
						OFFSET -0.000001 -3.481765 12.994140
						CHANNELS 3 Zrotation Yrotation Xrotation
						End l_toes_End_dup
						{
							OFFSET 0.000000 0.000003 10.000000
						}
					}
				}
			}
		}
	}
	JOINT r_hip_dup
	{
		OFFSET 0.100000 0.000000 0.000000
		CHANNELS 3 Zrotation Yrotation Xrotation
		JOINT r_thigh_dup
		{
			OFFSET -7.071067 -7.071068 0.000000
			CHANNELS 3 Zrotation Yrotation Xrotation
			JOINT r_knee_dup
			{
				OFFSET 0.000000 -49.999996 0.000000
				CHANNELS 3 Zrotation Yrotation Xrotation
				JOINT r_foot_dup
				{
					OFFSET -0.000002 -46.844952 -0.000000
					CHANNELS 3 Zrotation Yrotation Xrotation
					JOINT r_toes_dup
					{
						OFFSET -0.000001 -3.481757 12.994109
						CHANNELS 3 Zrotation Yrotation Xrotation
						End r_toes_End_dup
						{
							OFFSET 0.000000 -0.000003 10.000000
						}
					}
				}
			}
		}
	}
	JOINT spine1_dup
	{
		OFFSET -0.000000 0.100000 0.000000
		CHANNELS 3 Zrotation Yrotation Xrotation
		JOINT spine2_dup
		{
			OFFSET 0.000000 10.421848 -0.000000
			CHANNELS 3 Zrotation Yrotation Xrotation
			JOINT spine3_dup
			{
				OFFSET 0.000000 10.421845 -0.000000
				CHANNELS 3 Zrotation Yrotation Xrotation
				JOINT spine4_dup
				{
					OFFSET -0.000000 10.421832 0.000000
					CHANNELS 3 Zrotation Yrotation Xrotation
					JOINT neck1_dup
					{
						OFFSET 0.000000 10.421812 0.000000
						CHANNELS 3 Zrotation Yrotation Xrotation
						JOINT neck2_dup
						{
							OFFSET 0.000000 5.749965 -0.000000
							CHANNELS 3 Zrotation Yrotation Xrotation
							JOINT head_dup
							{
								OFFSET -0.000000 5.749923 -0.000000
								CHANNELS 3 Zrotation Yrotation Xrotation
								End head_End_dup
								{
									OFFSET 0.000000 11.499688 0.000000
								}
							}
						}
					}
					JOINT l_clavicle_dup
					{
						OFFSET -0.000000 10.421843 -0.000000
						CHANNELS 3 Zrotation Yrotation Xrotation
						JOINT l_shoulder_dup
						{
							OFFSET 18.284861 0.000012 -0.000000
							CHANNELS 3 Zrotation Yrotation Xrotation
							JOINT l_elbow_dup
							{
								OFFSET 30.849018 0.000020 0.000000
								CHANNELS 3 Zrotation Yrotation Xrotation
								JOINT l_hand_dup
								{
									OFFSET 28.131332 0.000019 0.000000
									CHANNELS 3 Zrotation Yrotation Xrotation
									End l_hand_End_dup
									{
										OFFSET 14.999249 0.000010 0.000000
									}
								}
							}
						}
					}
					JOINT r_clavicle_dup
					{
						OFFSET -0.000000 10.421843 -0.000000
						CHANNELS 3 Zrotation Yrotation Xrotation
						JOINT r_shoulder_dup
						{
							OFFSET -18.284861 0.000004 0.000000
							CHANNELS 3 Zrotation Yrotation Xrotation
							JOINT r_elbow_dup
							{
								OFFSET -30.849058 0.000005 -0.000000
								CHANNELS 3 Zrotation Yrotation Xrotation
								JOINT r_hand_dup
								{
									OFFSET -28.131351 0.000005 0.000000
									CHANNELS 3 Zrotation Yrotation Xrotation
									End r_hand_End_dup
									{
										OFFSET -14.999262 0.000003 0.000000
									}
								}
							}
						}
					}
				}
			}
		}
	}
}
MOTION
Frames: 21
Frame Time: 0.041667
53.789	104.556	-50.686	1.136	-188.008	4.376	0.000	0.000	0.000	-1.386	6.002	-36.048	-0.000	0.000	27.084	-0.101	10.897	-4.942	0.001	-0.001	-2.788	0.000	0.000	0.000	-3.465	1.126	4.411	-0.000	0.000	32.425	4.932	-6.850	-13.901	0.002	-0.001	-12.874	-0.373	2.527	3.266	-0.151	2.511	2.373	-0.055	2.588	4.018	-0.101	2.539	7.093	1.205	1.406	-9.439	0.411	1.412	-7.427	-0.364	1.464	-5.311	-10.583	-4.416	-2.230	-70.789	0.074	-22.403	-0.058	-27.180	-0.105	-12.148	-20.811	-9.207	6.813	4.403	-2.634	66.204	11.742	-3.314	0.069	45.291	-0.060	0.340	1.884	15.981
53.620	104.715	-55.821	0.465	-187.831	4.018	0.000	0.000	0.000	-3.052	7.224	-34.508	-0.000	0.000	31.320	-0.655	9.163	-6.912	0.001	-0.001	0.143	0.000	0.000	0.000	-5.575	-0.377	1.958	-0.000	0.000	41.450	5.174	-5.840	-0.824	0.002	-0.000	-20.533	-1.485	2.285	2.805	-0.705	2.281	2.188	-0.036	2.337	4.099	0.158	2.363	7.282	0.886	1.244	-9.764	0.427	1.247	-7.778	-0.007	1.292	-5.607	-10.625	-5.105	-2.319	-70.779	0.296	-25.908	-0.057	-24.217	-0.110	-11.795	-19.350	-7.173	6.711	3.695	-2.751	69.620	9.733	-5.164	0.062	37.098	-0.072	1.875	1.461	20.685
52.768	105.176	-63.736	-0.632	-187.198	3.255	0.000	0.000	0.000	-4.800	8.121	-32.037	-0.000	0.000	35.115	-0.317	7.772	-9.985	0.001	-0.001	2.397	0.000	0.000	0.000	-7.881	-1.829	-2.288	-0.000	0.000	51.911	5.187	-6.782	14.713	0.002	-0.001	-15.071	-2.033	1.965	2.230	-1.026	1.934	1.879	-0.153	1.942	4.160	0.088	1.954	7.592	0.598	1.119	-9.531	0.363	1.098	-7.572	0.130	1.120	-5.429	-10.768	-5.283	-1.719	-70.485	-1.069	-29.031	-0.056	-20.745	-0.115	-13.211	-18.545	-3.307	6.336	3.356	-2.231	72.355	7.616	-9.531	0.058	29.524	-0.082	3.356	-0.563	24.196
52.165	105.796	-71.017	-1.636	-185.844	1.824	0.000	0.000	0.000	-6.041	8.628	-28.389	-0.000	0.000	37.282	0.116	6.277	-12.934	0.001	-0.001	2.308	0.000	0.000	0.000	-9.080	-1.971	-7.646	-0.000	0.000	62.835	5.604	-7.404	21.124	0.002	-0.001	-5.676	-2.651	1.435	2.041	-1.331	1.439	1.775	-0.160	1.488	4.250	0.135	1.539	7.853	0.469	1.161	-8.894	0.271	1.167	-7.044	0.085	1.183	-5.068	-10.855	-5.213	-2.145	-69.461	-2.072	-27.729	-0.056	-18.620	-0.119	-14.499	-16.950	-2.928	5.811	3.627	-1.744	74.102	5.956	-14.823	0.055	22.082	-0.091	2.755	-5.139	27.815
51.807	106.378	-75.461	-2.045	-184.721	0.537	0.000	0.000	0.000	-6.619	8.746	-23.363	-0.000	0.000	37.290	0.754	5.137	-14.960	0.001	-0.001	1.936	0.000	0.000	0.000	-9.676	-2.048	-12.358	-0.000	0.000	70.377	6.590	-4.562	16.188	0.002	-0.001	-5.090	-2.944	0.926	2.618	-1.468	0.909	2.082	-0.172	0.966	4.323	0.112	1.034	7.801	0.525	1.286	-8.219	0.209	1.311	-6.456	-0.086	1.335	-4.714	-11.002	-5.058	-2.129	-68.139	-4.193	-24.277	-0.056	-17.492	-0.121	-13.992	-15.988	-1.526	5.346	3.559	-0.459	74.792	4.980	-17.858	0.054	16.950	-0.097	1.840	-6.837	32.953
51.461	107.158	-79.790	-2.138	-183.509	-0.738	0.000	0.000	0.000	-6.517	7.985	-17.381	-0.000	0.000	35.284	1.214	4.917	-15.961	0.001	-0.001	1.553	0.000	0.000	0.000	-9.437	-2.093	-16.783	-0.000	0.000	73.251	6.687	-1.546	10.805	0.002	-0.001	-6.102	-2.884	0.418	3.268	-1.462	0.410	2.443	-0.151	0.495	4.457	0.182	0.561	7.818	0.591	1.370	-7.541	0.198	1.366	-5.931	-0.173	1.406	-4.420	-11.326	-4.921	-2.569	-66.898	-6.110	-20.318	-0.057	-17.819	-0.122	-13.330	-17.314	1.256	5.380	3.412	-0.140	74.293	2.196	-16.353	0.054	15.477	-0.100	1.939	-8.001	36.505
50.991	108.042	-86.205	-1.812	-181.437	-2.221	0.000	0.000	0.000	-6.111	6.297	-11.689	-0.000	0.000	32.926	1.587	5.576	-16.776	0.001	-0.001	1.087	0.000	0.000	0.000	-8.504	-1.733	-20.848	-0.000	0.000	72.106	6.266	-0.273	6.858	0.002	-0.001	-6.273	-2.595	-0.099	3.802	-1.313	-0.079	2.669	-0.076	0.008	4.380	0.248	0.070	7.703	0.912	1.328	-6.840	0.207	1.404	-5.282	-0.449	1.463	-3.886	-10.820	-4.448	-2.514	-67.161	-8.754	-18.763	-0.058	-19.005	-0.122	-12.682	-17.369	2.663	4.903	2.878	-2.007	74.975	-2.834	-17.152	0.055	16.329	-0.101	1.693	-8.657	37.665
50.727	108.472	-92.528	-1.189	-179.265	-2.535	0.000	0.000	0.000	-5.598	4.280	-6.876	-0.000	0.000	30.266	2.091	6.525	-18.128	0.001	-0.001	1.569	0.000	0.000	0.000	-7.197	-1.169	-24.330	-0.000	0.000	66.109	5.977	-0.364	3.942	0.002	-0.001	-6.721	-2.370	-0.607	3.934	-1.128	-0.571	2.607	0.063	-0.485	4.206	0.417	-0.392	7.569	1.224	1.311	-6.529	0.320	1.370	-4.841	-0.576	1.465	-3.301	-9.828	-3.651	-2.534	-68.376	-12.089	-19.905	-0.059	-19.293	-0.122	-12.654	-18.928	2.359	4.366	2.591	-1.129	75.563	-5.240	-17.816	0.056	17.685	-0.101	2.280	-6.094	36.738
50.590	108.636	-96.755	-0.772	-177.854	-2.423	0.000	0.000	0.000	-5.119	2.328	-2.356	-0.000	0.000	27.151	2.884	7.643	-18.877	0.001	-0.001	1.879	0.000	0.000	0.000	-6.119	-0.569	-26.650	-0.000	0.000	55.808	6.401	-1.408	1.435	0.002	-0.001	-8.464	-2.163	-1.106	3.804	-1.036	-1.078	2.535	0.265	-0.978	4.095	0.829	-0.928	7.370	1.254	1.381	-6.381	0.371	1.402	-4.632	-0.485	1.448	-3.008	-10.235	-3.181	-2.465	-68.605	-15.092	-22.228	-0.060	-20.334	-0.122	-12.843	-20.365	0.661	4.387	2.586	-1.629	75.348	-8.489	-18.133	0.057	19.101	-0.100	2.808	-4.485	35.426
50.422	108.597	-103.221	-0.352	-175.939	-1.984	0.000	0.000	0.000	-4.773	0.745	1.609	-0.000	0.000	24.598	3.689	8.732	-18.926	0.001	-0.001	1.170	0.000	0.000	0.000	-5.394	0.313	-26.995	-0.000	0.000	41.088	7.620	-4.195	0.472	0.002	-0.001	-7.678	-2.084	-1.616	3.384	-0.989	-1.589	2.384	0.414	-1.480	4.072	1.227	-1.415	7.386	1.138	1.474	-6.133	0.451	1.476	-4.560	-0.226	1.515	-3.034	-11.035	-3.094	-2.427	-68.304	-17.556	-24.109	-0.062	-22.033	-0.121	-13.007	-20.648	-2.463	5.309	2.674	-2.295	74.317	-10.873	-18.790	0.059	20.835	-0.100	2.737	-5.527	33.587
50.318	107.959	-107.674	0.029	-174.877	-1.619	0.000	0.000	0.000	-4.100	0.125	4.914	-0.000	0.000	23.447	4.179	9.102	-20.698	0.001	-0.001	0.822	0.000	0.000	0.000	-4.668	0.785	-26.473	-0.000	0.000	25.699	9.847	-7.823	1.167	0.002	-0.001	-6.796	-1.946	-2.048	2.768	-0.924	-2.053	2.128	0.601	-1.958	4.121	1.504	-1.881	7.370	1.275	1.597	-5.869	0.573	1.621	-4.495	-0.095	1.652	-3.159	-10.724	-3.061	-2.252	-68.574	-19.111	-23.168	-0.063	-24.235	-0.119	-12.536	-20.189	-8.451	5.567	2.635	-2.711	73.890	-12.245	-19.133	0.060	22.336	-0.099	3.174	-6.231	32.007
50.217	107.192	-112.313	0.416	-174.051	-1.297	0.000	0.000	0.000	-3.118	0.073	7.859	-0.000	0.000	23.595	4.124	8.666	-22.213	0.001	-0.001	0.294	0.000	0.000	0.000	-3.313	-0.259	-26.029	-0.000	0.000	13.654	11.773	-7.923	-0.197	0.002	-0.001	-10.060	-1.873	-2.408	1.980	-0.825	-2.358	1.779	0.787	-2.340	4.188	1.816	-2.294	7.587	1.698	1.731	-5.674	0.746	1.784	-4.421	-0.174	1.833	-3.181	-10.715	-3.266	-2.731	-68.433	-18.769	-20.331	-0.066	-26.959	-0.116	-10.682	-20.404	-10.118	6.254	2.648	-3.514	72.939	-12.803	-20.254	0.061	22.194	-0.100	3.577	-4.693	32.180
50.109	105.838	-119.709	1.101	-173.572	-1.041	0.000	0.000	0.000	-2.092	-0.168	9.853	-0.000	0.000	26.300	2.977	8.148	-22.138	0.001	-0.001	-2.494	0.000	0.000	0.000	-1.729	-0.482	-25.665	-0.001	0.000	8.920	13.351	-5.327	-4.004	0.002	-0.001	-8.683	-1.742	-2.572	1.202	-0.688	-2.597	1.374	1.048	-2.489	4.239	2.155	-2.482	7.902	2.134	1.861	-5.711	0.817	1.909	-4.311	-0.464	1.969	-2.896	-11.451	-3.697	-2.795	-67.486	-18.081	-18.179	-0.068	-29.291	-0.114	-9.553	-21.243	-10.929	7.220	2.413	-4.428	71.448	-12.824	-20.440	0.061	21.521	-0.102	4.222	-2.943	33.269
49.834	104.738	-127.293	2.032	-173.615	-1.264	0.000	0.000	0.000	-0.348	1.047	10.526	-0.000	0.000	32.100	1.294	6.287	-18.293	0.001	-0.001	-11.887	0.000	0.000	0.000	-0.613	0.789	-26.093	-0.000	0.000	12.493	13.202	-2.864	-0.953	0.002	-0.001	-6.355	-1.205	-2.622	0.627	-0.400	-2.642	1.150	1.235	-2.589	4.346	2.447	-2.531	7.938	2.474	1.953	-5.831	0.748	2.003	-4.065	-0.939	2.078	-2.265	-12.562	-4.195	-2.701	-66.575	-16.905	-16.997	-0.070	-30.767	-0.113	-8.707	-21.984	-11.021	8.142	2.112	-4.489	69.972	-10.972	-20.858	0.061	19.982	-0.105	2.947	-3.088	33.368
49.683	104.407	-132.225	2.857	-173.509	-1.860	0.000	0.000	0.000	2.495	3.427	9.663	-0.000	0.000	39.986	1.979	3.777	-9.998	0.001	-0.001	-21.776	0.000	0.000	0.000	0.687	2.255	-26.558	-0.000	0.000	20.116	11.232	-2.294	0.409	0.002	-0.001	0.091	-0.542	-2.653	0.554	0.042	-2.636	1.201	1.522	-2.609	4.454	2.721	-2.595	8.092	2.595	1.965	-5.859	0.628	2.029	-3.711	-1.306	2.141	-1.563	-12.924	-4.819	-2.581	-66.758	-16.031	-17.783	-0.070	-29.990	-0.115	-9.962	-22.865	-10.972	9.768	2.401	-4.701	68.193	-8.432	-23.362	0.061	18.380	-0.108	1.067	-4.668	33.602
49.419	104.278	-139.167	4.851	-172.858	-4.152	0.000	0.000	0.000	6.677	5.906	6.763	-0.000	0.000	51.993	1.296	1.528	-0.993	0.001	-0.001	-16.935	0.000	0.000	0.000	3.220	1.826	-25.093	-0.000	0.000	27.103	7.680	-2.292	-2.938	0.002	-0.001	5.492	0.729	-2.693	1.697	0.694	-2.711	1.717	1.798	-2.605	4.414	2.987	-2.497	7.768	2.427	1.861	-5.581	0.521	1.885	-3.178	-1.337	1.944	-0.773	-11.517	-5.609	-2.252	-69.620	-15.473	-21.779	-0.069	-27.178	-0.119	-10.228	-21.725	-10.666	9.487	2.254	-3.937	68.608	-4.468	-26.130	0.061	17.152	-0.111	-0.202	-5.935	33.940
49.117	104.783	-143.416	5.167	-172.300	-5.248	0.000	0.000	0.000	8.686	7.449	1.466	-0.000	0.000	63.803	-0.599	3.257	7.969	0.001	-0.001	-6.736	0.000	0.000	0.000	4.195	1.355	-22.205	-0.000	0.000	30.524	5.053	-2.669	-5.673	0.002	-0.001	4.952	1.474	-2.642	2.561	1.052	-2.565	2.114	1.675	-2.473	4.361	2.900	-2.459	7.661	2.428	1.552	-4.670	0.705	1.577	-2.258	-0.974	1.632	0.156	-10.370	-6.080	-1.607	-71.450	-16.234	-26.092	-0.067	-22.646	-0.126	-10.301	-20.707	-5.927	9.240	2.434	-3.515	69.566	-0.371	-28.542	0.062	16.378	-0.113	-1.434	-4.815	34.944
48.705	105.424	-147.262	5.142	-171.797	-5.997	0.000	0.000	0.000	9.349	9.181	-4.730	-0.000	0.000	72.722	-2.074	4.232	7.606	0.001	-0.001	-3.844	0.000	0.000	0.000	4.252	0.970	-18.979	-0.000	0.000	31.559	4.191	-3.067	-6.835	0.002	-0.001	4.505	2.098	-2.344	3.227	1.302	-2.326	2.385	1.384	-2.337	4.218	2.220	-2.348	7.496	2.591	1.193	-3.059	1.027	1.194	-1.129	-0.501	1.225	0.790	-9.164	-5.791	-1.438	-72.487	-16.963	-28.473	-0.066	-18.696	-0.132	-10.635	-19.224	-3.437	8.828	2.793	-2.916	71.312	3.022	-28.128	0.063	19.128	-0.112	0.001	-3.656	32.798
47.854	106.796	-152.577	4.617	-171.422	-6.611	0.000	0.000	0.000	8.726	10.561	-10.828	-0.000	0.000	76.434	-2.310	2.311	5.233	0.001	-0.001	-3.991	0.000	0.000	0.000	3.768	0.704	-15.431	-0.000	0.000	30.663	4.118	-3.122	-6.393	0.002	-0.001	3.701	2.417	-2.034	3.632	1.430	-1.980	2.571	1.157	-1.910	4.254	1.830	-1.936	7.581	2.401	0.730	-1.604	1.145	0.713	-0.146	-0.046	0.706	1.307	-9.374	-5.483	-1.430	-72.257	-16.794	-28.129	-0.066	-17.031	-0.135	-11.702	-19.076	-0.801	8.147	3.219	-2.705	72.414	5.171	-24.278	0.066	24.243	-0.107	2.400	-3.104	29.532
46.626	107.976	-157.662	3.739	-172.141	-6.754	0.000	0.000	0.000	7.652	12.340	-15.680	-0.000	0.000	74.958	-2.834	-0.643	3.760	0.001	-0.001	-5.586	0.000	0.000	0.000	2.895	1.057	-12.344	-0.000	0.000	29.914	4.630	-2.865	-6.279	0.002	-0.001	2.676	2.703	-1.498	3.758	1.480	-1.428	2.563	1.028	-1.376	4.319	1.429	-1.304	7.815	2.408	0.265	-0.220	1.163	0.207	0.707	-0.027	0.151	1.668	-9.543	-5.378	-1.014	-72.400	-15.992	-27.931	-0.067	-17.400	-0.135	-14.056	-19.368	0.467	6.729	2.927	-2.388	72.996	6.789	-17.493	0.070	30.607	-0.100	3.349	-0.074	24.418
45.766	108.699	-160.927	3.071	-172.781	-6.739	0.000	0.000	0.000	6.453	13.480	-19.012	-0.000	0.000	69.189	-4.993	-2.741	0.449	0.001	-0.001	-3.996	0.000	0.000	0.000	1.878	1.871	-9.535	-0.000	0.000	29.227	5.675	-2.859	-6.176	0.002	-0.001	1.255	2.849	-0.972	3.926	1.498	-0.996	2.710	0.880	-0.980	4.243	1.153	-0.997	7.752	2.289	-0.115	0.478	1.111	-0.118	1.432	-0.090	-0.027	2.520	-9.590	-4.768	-0.762	-72.868	-14.451	-27.823	-0.068	-18.223	-0.135	-14.222	-19.894	1.311	5.405	2.268	-2.161	72.501	8.325	-9.983	0.076	37.285	-0.090	2.532	1.581	19.719
